<svg xmlns="http://www.w3.org/2000/svg" viewBox="0 0 240.18 478.7"><g data-name="レイヤー 2"><path d="M76.75 90.06a9.24 9.24 0 012.39-.42c1.27.09 2.18.68 1.24 2.12-1.72 2.61-3.54 5.15-5.24 7.78-2.72 4.22-5.81 8.28-7.92 12.79-1.89 4-1.4 7 3.77 9.14a24.17 24.17 0 012.89 1.42c2.47 1.44 5.17 2.68 7.25 4.57 3.76 3.43 3.16 8 2.17 12.43a3 3 0 003 3.84c3.84 0 7.68-.63 11.75-1-.92-2.05-2.84-6.23-3.2-7.32-1.41-4.33-2.93-8.61-4.45-12.9-.18-.51-.51-1.2-.93-1.35a39.69 39.69 0 00-7.65-2.42c-3.64-.52-5.62-2.9-7.2-5.66-1.37-2.39-.65-3.63 2-4.38 3.35-1 6.71-1.89 10.1-2.69a3.2 3.2 0 002.78-3.71c-.16-3.72-.16-7.46-.35-11.18-.17-3.12 1.39-5.2 3.69-4.45 4.82 1.59 8.74 4.38 11 9.11a4.79 4.79 0 005.58 2.43c7.13-2.27 14.29-4.44 21.36-6.9.86-.3 1.7-.67 2.54-1a7.77 7.77 0 002.57-1.31c.75-.8 1.07-2.47 1.43-3.5l1.57-4.37a8.26 8.26 0 00.66-4.51 6.45 6.45 0 00-1.28-2.74 19.14 19.14 0 00-1.43-1.8c-1.36-1.52-1.05-2.81.57-3.91 2.72-1.84 5-4 5.37-8.13-.26 2.73-26.47 11.83-29.21 13.06-5.86 2.61-11.91 4.35-17.83 6.71a105 105 0 01-19.18 6 65.76 65.76 0 01-19.65.71c-6.22-.71-12.08-2.12-17.17-5.94-5.64-4.22-9.69-9.23-11-16.34a1.88 1.88 0 010-.71c.07-.47.24-1 .33-1.43l.51-2.46a1 1 0 011.21-.71l2.74.82c1.07.32 2 .91 3.11 1.23a18.36 18.36 0 007 .52c6.12-.58 12.27-.85 18.36-1.61 5-.64 10-1.7 15-2.71q12.89-2.61 25.73-5.41c5.66-1.22 11.31-2.55 17-3.91s11.26-2.79 16.89-4.21l8.38-2.13c4.49-1.12 8.91-2.53 13.38-3.81 2.55-.72 5.11-1.45 7.59-2.39s4.65-2.37 7-3.51c3.82-1.86 8-2.32 12.25-2.38a13.3 13.3 0 015.06 1.2 110.33 110.33 0 0010.81 3.29c2.48.68 5.21 1.16 7.51 2.33 4 2 5.27 8 4 11.94-1.61 4.87-6.87 9.19-11.75 10.43-7 1.78-14.89-1.56-21.65-3-2.43-.54-5.23 0-7.69.33-2.51.5-5.17.56-7.7.84.37 1.44-1.77 3 .23 4.39a5.92 5.92 0 011.21 1.56c3.22 4.56 2.68 6.33-2.59 8.49a3.82 3.82 0 00-.68.31c-1.69 1.23-1.69 7.15-.07 9.08a.73.73 0 01.08.86c-.13.24-.27.47-.4.7l-.2.34a.74.74 0 00-.14.28.29.29 0 00.07.18.45.45 0 00.4.15c.33 0 .67-.06 1-.08l1.08-.09c.73-.07 1.45-.13 2.17-.21l1.53-.19c7.49-1 14 1.47 20.23 5.32 1.89 1.17 3.61 2.64 5.54 3.74 3.7 2.11 3.82 5.59 3.07 9-.94 4.23-4.13 6.7-8.34 7.45a99.22 99.22 0 01-13.56 1.14c-1.89.08-3.78.23-5.66.42-.89.09-1.78.22-2.67.25s-1.86.32-2.77.43a14.11 14.11 0 01-4.72-.09 12.42 12.42 0 01.49-2.07c.12-.34.25-.67.39-1s.33-.5.11-.85a3.37 3.37 0 00-1.28-.88 6.33 6.33 0 00-2.75-.7c-3.16 0-5.14 2.32-6.34 4.89-2 4.36-4.1 8.72-5.92 13.17-.63 1.53-.58 3.34-.9 5.39 2.25-.56 4.4-1 6.47-1.65 3.79-1.19 7.58-2.39 11.28-3.82 5.79-2.23 10.44-.57 14.67 3.59 2.92 2.88 4.63 6 4.65 10.29a8 8 0 01-6.16 7.61c-2.66.67-4.9-.38-7.35-.75-5.44-.83-10.84.79-16 2.35-1.08.33-5.19.8-5.05 2.4.1 1.19 2.17 2.15 3 2.79l4.18 3.2c2.09 1.75 4.35 3.34 6.51 5s3.95 3 6.74 1.89c8.75-3.34 16.42-8.08 20.44-17a31.35 31.35 0 001.82-7.45c.62-3.48 1.87-3.93 5.35-3.14 6.75 1.54 10.71 6.39 14.38 11.52 1.93 2.71 2.52 5.88.3 9.07-1.79 2.57-3.1 5.5-5 8-.77 1-2.41 1.46-3.7 2.07-3.35 1.57-6.74 3.07-10.1 4.63a19.56 19.56 0 01-6.69 1.4 25.5 25.5 0 00-6.14 1.55c-.75.27-1.33 1.17-1.86 1.89a16.65 16.65 0 00-1.19 2.33c5.56 6.46 11.79 12.65 20.16 15.76a46.9 46.9 0 0013.36 2.4 86.33 86.33 0 0014.36-.64c1.88-.2 3.73-1.31 5.46-2.26 1.94-1.06 3.3-.61 4.46 1.1 3.33 4.87 4.67 10.09 1.57 15.45-2.48 4.28-5.67 8.08-10.57 9.94-4.45 1.7-9 1.39-13.52.57-3.88-.69-7.9-.85-11.66-1.92a83.75 83.75 0 01-11.59-4.76c-3.56-1.62-7-3.51-10.49-5.27-2.25-1.14-4.25-2.47-5.2-5a2 2 0 00-1.58-1.08 2.73 2.73 0 00-1.78 1.36c-1 2.43-1.74 5-2.85 7.41-3.4 7.4-10.88 10.38-18.75 8.07-3.65-1.08-6.28-3-7.64-6.42a5.51 5.51 0 01-.14-3.75c4.29-10.48 6-21.57 7.59-32.66.55-3.9-.09-8-.61-12a64.35 64.35 0 00-2.28-8.83 5 5 0 00-5.08-4 4.73 4.73 0 00-2 .26l-2.66 1q-2.66 1.05-5.3 2.13c-7.05 2.87-14 5.91-21 9.06-1.45.73-3 1.31-4.41 2.06a2.77 2.77 0 00-.84.68 7.94 7.94 0 00-1.38 5.2 43.71 43.71 0 01-.79 8.15 71.32 71.32 0 01-2.12 6.86 25.35 25.35 0 00-.46 2.8c1.18-.38 2.11-.4 2.59-.88 3-2.94 6.06-5.83 8.76-9 4.61-5.47 8.36-11.57 14.1-16.2 4-3.25 9.29-.62 9.79 3.31a103.42 103.42 0 011.08 11.88c.08 6.83 0 13.67-.4 20.48-.4 6.43-2.47 12.2-8.86 15.27-4.11 2-8.12.86-11.92-.88-1.79-.82-1.72-2.86-.33-5 2.2-3.42 4.56-6.74 6.51-10.29 2.12-3.89 3.6-8.06 3.07-12.65-.15-1.25.23-2.64-1.76-3a2.7 2.7 0 00-3.34 1.76c-2.54 5.29-4.8 10.73-7.58 15.89-3.16 5.87-6.17 12-10.34 17.09-4.77 5.85-11.49 8.87-19.38 7.08-3.46-.78-9.2-4.45-9.36-9.58-.13-4.19-.11-8.4 0-12.6.07-2.16 1.48-3.56 3.34-4.62a37.83 37.83 0 0016.41-18.13c1.61-3.72 1.93-8 2.74-12a2.27 2.27 0 00-.59-1.76c-2.23-2.23-4.82-4.16-6.68-6.74-1.19-1.64-2.27-3.74-4.53-3.85-2-.1-2.29 1.18-2.89 2.44-4.91 10.37-11.57 19.71-17.45 29.52-3.2 5.33-5.88 11-9.26 16.18-5.14 7.91-10.61 15.6-16.06 23.29-2.86 4-6 7.83-9 11.79-2.15 2.87-5.49 4-8.56 4.46-2 .34-5.14-1-6.61-2.57-5.57-6.3-9.92-12.9-7.49-22.41 1.12-4.41-.45-9.53-.93-14.32-.44-4.34-.72-8.63 1.7-12.57.2-.33.5-.6 1.33-1.59.84 3.14 1.74 5.66 2.17 8.26 1 6.13 5.41 9.34 10.31 11.93 1 .54 3.27-.32 4.47-1.19a57.15 57.15 0 0012.68-13.23 139.54 139.54 0 0014.71-25.06c2.65-6 5-12.11 7.17-18.26 1-2.77 1.18-5.32-1.15-8.2a49.47 49.47 0 00-6.27-6.42 11.42 11.42 0 01-4.15-8.73c-.1-6.23 1.8-11.67 6.86-15.85 5.93-4.91 11.5-10.27 17.49-15.11 2.73-2.21 6.07-3.67 9.13-5.47zm35.45 47.08h1.16a3.52 3.52 0 001-.15c3.85-1.42 8.31-1.85 9.61-7 1-3.92 2.28-7.8 3.66-11.61a2.31 2.31 0 00-1-3.05 9.58 9.58 0 00-3.69-.56 20.54 20.54 0 00-4.07.28c-2.72.45-6.07 1.41-8.17 3.28-.34.3-.32.3-.27.8s.09.9.14 1.35l.56 5.47zm-3.42 164.43c.57 0 2.59-3.89 3-4.46q1.45-2.19 3-4.34c2.67 4.19.08 7.8.11 12.28 1-1.22 1.94-3.47 3.92-3.23a2.87 2.87 0 011.92 1.23 36.85 36.85 0 012.7 5.45 18.54 18.54 0 012 7.17c.22 5.7-2.37 10-6.24 13.75-1.48 1.44-2.91 2.95-4.45 4.34s-3.7 2.14-2.33 4.81c0 .1-.38.44-.77.88a65.78 65.78 0 0019.07-4.84c11-4.38 20.9-10.75 31.25-16.32a7.38 7.38 0 012.9-.61.38.38 0 01.4.48c-.15.53-.34 1.28-.37 1.39a4.22 4.22 0 01-.76 1.51c-2.22 2.56-4.71 4.88-7 7.36a9.79 9.79 0 00-1.27 1.85c-.08.13-.15.38-.11.41l.12.07c.13.07.22 0 .32-.07s.29-.14.43-.21l1.16-.61 2.28-1.18a23.78 23.78 0 014.39-2 .34.34 0 01.43.33 4 4 0 01-.68 2.43 8.43 8.43 0 01-1.92 1.85c-1.15 1-2.33 1.88-3.52 2.79l-1.81 1.37-.91.69c-.19.15-.53.28-.58.54a.63.63 0 00.13.45c.07.11.14.22.26.25a.49.49 0 00.24 0 5.81 5.81 0 001.6-.48 5.29 5.29 0 011.33-.83 1.67 1.67 0 011.88 1 1.74 1.74 0 010 1.29 3.14 3.14 0 01-.66 1.15 74 74 0 01-6.14 5c-5.43 4.07-10.91 8.07-16.34 12.14A97.25 97.25 0 01118 368.09c-5.76 2.5-11.5 5.1-17.42 7.17a88.91 88.91 0 01-21.81 4.65 33.09 33.09 0 01-17.65-3 17.79 17.79 0 01-6-5.38c-4.86-6.57-5.18-14.25-4.22-21.94.64-5.08 4-8.82 8.05-11.56 8.27-5.56 16.54-11.19 23-18.77 5.64-6.57 10.51-13.8 15.65-20.78 2.3-3.12 4.4-6.39 6.66-9.54.88-1.22 2.16-1.44 2.57.23a64.38 64.38 0 011.27 8.08 39.43 39.43 0 010 4.35zm114.41 164.04a32.08 32.08 0 01-7.1 1.32 25.08 25.08 0 01-8.36-.9c-4.56-1.24-8.71-3.9-13.18-5.57a82.94 82.94 0 00-8.37-2.6c-2.43-.62-4.89-.55-7.32-1.12-3.15-.74-1.63-2.5-.1-4.26-2.84.49-5.71.77-8.56 1.19a9.44 9.44 0 01-2.95.09 1.6 1.6 0 01-1.31-1.22 1.57 1.57 0 01.51-1.32 4.77 4.77 0 011.22-.8c2.17-1.11 4.36-2.18 6.55-3.23a7.16 7.16 0 00-3.82-.83 15.58 15.58 0 00-3.86 1.26c-4.38 1.56-8.78 3.05-13.2 4.5a3.9 3.9 0 01-1.54.29 1.35 1.35 0 01-1.22-.83c-.23-.71.34-1.4.88-1.9 5.38-5.06 12-8.79 18.14-12.76q5-3.23 10.07-6.4a76.85 76.85 0 017.7-4c5.59-2.69 10-8 9-15.06-.4-2.87-.47-5.78-.87-8.65-.27-1.93.53-2.82 2.3-3.1a17.1 17.1 0 0112.55 3c10.42 7.06 17.19 17.24 23.36 27.89 1.33 2.3 2.56 4.65 3.8 7 2.66 5 4 12.09.72 17.13a27.26 27.26 0 01-15.04 10.88zM77.26 432a1.21 1.21 0 00.19.87c.74 1.09 2-.09 2.79-.48 1.23-.61 2.49-1.21 3.75-1.75a.22.22 0 01.21 0 .28.28 0 010 .32c-.21.61-.25 1.29-.48 1.92a12.14 12.14 0 01-.86 1.78 25.64 25.64 0 01-2.22 3.16A26 26 0 0079 440.1a2.91 2.91 0 00-.6 1.83c0 .31 1.87.53 2.09.51a5.51 5.51 0 002.05-.81 10.42 10.42 0 012.38-1.14c.41-.12 1.78-.61 1.92 0a.65.65 0 010 .24 8.41 8.41 0 01-.3 1.65 6.12 6.12 0 01-1.14 2q-1.05 1.2-2 2.46c-.35.44-.69.89-1 1.34a.08.08 0 000 .05l.07.05c.24 0 .47.07.71.09a3.11 3.11 0 00.43 0 13.07 13.07 0 011.35-.22.85.85 0 01.79.44 1.22 1.22 0 010 .9 25.7 25.7 0 01-1.32 2.93c-.35.73-.88 1.38-1.29 2.08s-1 1.65-1.53 2.47L78.37 462c-2 3.25-4.07 6.49-6.09 9.76-1.82 3-4.62 4.49-7.77 5.45-6.07 1.85-12.08 1.8-18.32 1.06a19.59 19.59 0 01-7.69-2.72 9 9 0 01-1.62-1.25 47.31 47.31 0 01-10.88-16c-.8-1.93-1.5-3.77-2.42-5.63-1.08-2.18-2.15-4.37-3-6.64a28.61 28.61 0 01-1.43-8.52c-.14-2.49 1.6-3.4 3.57-1.83 5.07 4.05 11.05 5 17.09 4.7a27.76 27.76 0 0010.62-3c8.26-4 16.27-8.51 24.4-12.78 2.46-1.29 5.32-3.26 8.1-3.68a1.49 1.49 0 011.24.23 1.33 1.33 0 01.29 1.18c-.25 2-2.38 3.77-3.61 5.22a32 32 0 00-3.34 3.78 2.16 2.16 0 00-.25.67zm83.82-406.84A89.28 89.28 0 01146.92 31c-14.37 4.85-36.12 10.41-50.66 4.56-1.56-1.08 7.25-7.53 7.84-8.57l1.6-1.23c-6.94-4.19-14.56-12.5-13.94-21.23a2.87 2.87 0 012.31-2.77 4.15 4.15 0 012.12.58c4.28 2.05 7.5 3.63 12.19 4 9.41.8 19 .79 28.14-2 4.23-1.29 8.19-4.29 12.65-4.34a18.36 18.36 0 0112.39 5c1.67 1.47 3.35 2.91 5 4.4 7.12 6.34 1.67 11.84-5.48 15.76z" fill="#fff" data-name="レイヤー 1"/></g></svg>