<?xml version="1.0" encoding="utf-8"?>
<!-- Generator: Adobe Illustrator 26.0.1, SVG Export Plug-In . SVG Version: 6.00 Build 0)  -->
<svg version="1.1" id="レイヤー_1" xmlns="http://www.w3.org/2000/svg" xmlns:xlink="http://www.w3.org/1999/xlink" x="0px"
	 y="0px" viewBox="0 0 209.88 592.47" style="enable-background:new 0 0 209.88 592.47;" xml:space="preserve">
<style type="text/css">
	.st0{fill:#FFFFFF;}
</style>
<g>
	<path class="st0" d="M200.72,135.22c-2.61,2.2-5.94,3.95-9.99,5.25c-4.05,1.31-8.21,1-12.46-0.93c-0.82,0-1.41,0.21-1.75,0.62
		c-0.34,0.41-0.65,0.89-0.93,1.44c-2.2-2.33-4.88-4.26-8.03-5.77c-3.16-1.51-6.01-3.12-8.55-4.84c-2.54-1.72-4.09-3.88-4.63-6.49
		c-2.47,1.51-4.16,3.85-5.05,7c-0.89,3.16-1.54,6.56-1.96,10.2c-0.41,3.64-0.96,7.11-1.65,10.4c-0.69,3.3-2.06,5.91-4.12,7.83
		c2.75,0.41,5.08,1.13,7,2.16c1.92,1.03,3.71,2.3,5.36,3.81c-1.51,1.65-3.16,2.57-4.94,2.78c-1.79,0.21-3.71,0.24-5.77,0.1h-0.21
		c-3.99-0.14-8.31-0.14-12.98,0c-4.67,0.14-9.41,0.34-14.21,0.62c-4.94,0.14-9.82,0.31-14.63,0.51c-4.81,0.21-9.27,0.24-13.39,0.1
		c-1.38,0.55-2.61,1.2-3.71,1.96c-1.1,0.75-2.34,1.47-3.71,2.16c-4.4-0.96-8-2.78-10.82-5.46c-2.82-2.68-5.19-5.8-7.11-9.37
		c0.82-3.3,1.27-7,1.34-11.12c0.07-4.12-0.04-8.27-0.31-12.46c-0.28-4.19-0.69-7.86-1.24-11.02c-3.99,1.51-7.21,3.19-9.68,5.05
		c-2.47,1.85-4.94,3.64-7.42,5.36c-2.47,1.72-5.84,3.19-10.09,4.43c-4.12,4.26-9.17,7.18-15.14,8.75
		c-5.97,1.58-11.57,2.51-16.79,2.78c3.16-2.2,5.94-3.81,8.34-4.84c2.4-1.03,4.84-1.41,7.31-1.13c7.42-6.32,14.86-13.08,22.35-20.29
		c7.48-7.21,14.55-15.04,21.22-23.48c6.66-8.45,12.39-17.47,17.2-27.09c-4.4-0.69-8.17-0.58-11.33,0.31
		c-3.16,0.9-6.11,1.96-8.86,3.19c-2.88,1.24-5.74,2.16-8.55,2.78c-2.82,0.62-6.01,0.04-9.58-1.75c0.27-1.37,0-2.68-0.82-3.91
		c-0.82-1.24-1.79-2.54-2.88-3.91c-1.1-1.24-2.16-2.61-3.19-4.12c-1.03-1.51-1.68-3.23-1.96-5.15c0.41-0.69,0.96-1.06,1.65-1.13
		c0.69-0.07,1.37-0.1,2.06-0.1c0.69,0.14,1.34,0.14,1.96,0c0.62-0.14,0.99-0.69,1.13-1.65c0.82-0.27,1.24,0.28,1.24,1.65
		c0,0.14,0,0.28,0,0.41c7.14,0.28,14.28,0.28,21.42,0c7.14-0.27,15.24-1.1,24.31-2.47c1.37-1.1,2.23-3.12,2.58-6.08
		c0.34-2.95,0.38-5.9,0.1-8.86c-0.28-2.95-0.76-4.91-1.44-5.87c-3.16,2.06-6.73,3.02-10.71,2.88c-3.99-0.14-7.76-0.48-11.33-1.03
		c-1.38-0.27-2.68-0.48-3.91-0.62c-1.24-0.14-2.4-0.21-3.5-0.21c0.13-0.41,0.38-0.72,0.72-0.93c0.34-0.21,0.58-0.58,0.72-1.13
		c-1.51,0-3.57,0.69-6.18,2.06c-0.55-0.96-0.45-1.82,0.31-2.58c0.75-0.75,1.54-1.41,2.37-1.96c0.55-0.41,1.06-0.79,1.54-1.13
		c0.48-0.34,0.86-0.72,1.13-1.13l1.44,0.41c8.51-2.33,17.54-5.39,27.09-9.17c9.54-3.78,18.85-7.52,27.91-11.23
		c-1.24-1.24-2.34-2.23-3.3-2.99c-0.96-0.75-1.72-2.02-2.27-3.81c0.41-0.96,1.06-1.47,1.96-1.54c0.89-0.07,1.82-0.1,2.78-0.1
		c0.96,0.14,1.85,0.14,2.68,0c0.82-0.14,1.3-0.75,1.44-1.85c1.1,0.41,2.3,0.65,3.61,0.72c1.3,0.07,2.71,0.1,4.22,0.1
		c0.96,0,2.02,0.04,3.19,0.1c1.17,0.07,2.3,0.17,3.4,0.31c0.69,0.82,1.44,1.62,2.27,2.37c0.82,0.76,1.65,1.41,2.47,1.96
		c2.06,1.65,3.81,3.37,5.25,5.15c1.44,1.79,2.02,4.33,1.75,7.62c-5.77,0.69-11.12,1.89-16.07,3.6c-4.94,1.72-9.72,3.54-14.32,5.46
		c-4.6,1.92-9.44,3.64-14.52,5.15c3.57,2.88,5.97,6.08,7.21,9.58c1.24,3.5,1.65,7.86,1.24,13.08c7.28-0.69,14.32-1.06,21.12-1.13
		c6.8-0.07,13.15-1.2,19.05-3.4c3.57,0.96,7.24,1.82,11.02,2.58c3.78,0.76,7.17,1.89,10.2,3.4c3.02,1.51,5.08,4.05,6.18,7.62
		c-3.02,1.65-6.83,2.58-11.43,2.78c-4.6,0.21-9.37,0.31-14.32,0.31c-3.85,0-7.62,0.04-11.33,0.1c-3.71,0.07-7,0.52-9.89,1.34
		c8.38,9.2,17.41,16.99,27.09,23.38c9.68,6.39,20.5,12.19,32.44,17.41c0.55,1.24,1.3,2.44,2.27,3.6c0.96,1.17,1.92,2.37,2.88,3.6
		c2.06,2.06,3.95,4.4,5.67,7C200.68,127.94,201.26,131.24,200.72,135.22z M128.21,115.86c-4.94,0.28-10.37,0.48-16.27,0.62
		c-5.91,0.14-11.74,0.41-17.51,0.82c-5.77,0.41-11.06,1.24-15.86,2.47c0,1.79,0,3.47,0,5.05c0,1.58,0,3.06,0,4.43
		c0.14,5.63,0.27,10.71,0.41,15.24c0.14,4.53,0.55,9.41,1.24,14.63c4.39-0.14,9.27-0.27,14.63-0.41c5.36-0.13,10.68-0.44,15.96-0.93
		c5.29-0.48,10.13-1.13,14.52-1.96c1.65-6.04,2.75-12.53,3.3-19.47C129.17,129.42,129.03,122.59,128.21,115.86z M138.3,104.11
		c-3.16-6.04-6.42-11.98-9.79-17.82c-3.37-5.84-7.45-10.88-12.26-15.14c-0.41,0-1.1,0-2.06,0c-2.06-0.14-4.57-0.14-7.52,0
		c-2.96,0.14-5.19,0.62-6.7,1.44c-1.24,4.67-3.12,8.79-5.67,12.36c-2.54,3.57-5.12,7.04-7.72,10.4c-2.61,3.37-4.88,7.11-6.8,11.23
		c3.98-0.14,8.1-0.31,12.36-0.52c4.25-0.21,8.51-0.44,12.77-0.72c6.04-0.41,11.95-0.75,17.72-1.03
		C128.41,104.05,133.63,103.98,138.3,104.11z"/>
	<path class="st0" d="M199.69,324.12c0.41,1.65,0.27,2.71-0.41,3.19c-0.69,0.48-1.58,0.86-2.68,1.13c-0.55,0.28-1.1,0.51-1.65,0.72
		c-0.55,0.21-0.96,0.52-1.24,0.93c-9.2-1.51-18.64-2.5-28.33-2.99c-9.68-0.48-19.19-0.72-28.53-0.72c-10.44,0-21.05,0.14-31.83,0.41
		c-10.78,0.28-21.32,1.1-31.62,2.47c3.02,1.79,6.08,3.4,9.17,4.84c3.09,1.44,5.11,4.02,6.08,7.72
		c-6.04,6.59-12.05,13.56-18.02,20.91c-5.97,7.35-12.6,13.77-19.88,19.26c-1.38,0.96-3.23,1.65-5.56,2.06
		c-2.34,0.41-4.33,0.69-5.97,0.82c0-1.1-0.38-1.89-1.13-2.37c-0.76-0.48-1.62-0.93-2.57-1.34c-0.82-0.28-1.58-0.69-2.27-1.24
		c-0.69-0.55-0.76-1.51-0.21-2.88c6.32-4.12,12.29-9.27,17.92-15.45c5.63-6.18,10.78-12.08,15.45-17.72
		c-0.28-1.92-1.31-3.64-3.09-5.15c-1.79-1.51-2.68-2.95-2.68-4.33c0-1.24,0.72-2.02,2.16-2.37c1.44-0.34,2.92-0.62,4.43-0.82
		c1.51-0.21,2.27-0.65,2.27-1.34c-3.85-0.27-8.38-0.14-13.6,0.41c-5.22,0.55-10.09,1.58-14.63,3.09c-1.51,0.55-3.09,1.2-4.74,1.96
		c-1.65,0.76-3.3,1.13-4.94,1.13c-2.2,0-4.6-1.1-7.21-3.3c-2.61-2.2-5.15-4.6-7.62-7.21c-2.47-2.61-4.67-4.53-6.59-5.77
		c0.13-1.24,0.65-2.02,1.54-2.37c0.89-0.34,1.41-0.99,1.54-1.96c1.92,0.69,3.98,1.1,6.18,1.24c2.19,0.14,4.33,0.21,6.39,0.21
		c6.04,0,12.08-0.24,18.13-0.72c6.04-0.48,12.08-0.72,18.13-0.72c-0.55-6.04-0.9-13.11-1.03-21.22c-0.14-8.1-0.96-16.14-2.47-24.1
		c-1.1-6.73-2.92-12.94-5.46-18.64c-2.54-5.7-6.22-10.2-11.02-13.49c0.82-0.41,1.78-0.62,2.88-0.62c1.51,0,3.02,0.31,4.53,0.93
		c1.51,0.62,3.02,1.07,4.53,1.34c2.61-1.51,5.53-2.64,8.75-3.4c3.23-0.75,6.28-1.68,9.17-2.78l-0.82,1.44
		c4.26-0.69,8.41-1.85,12.46-3.5c4.05-1.65,8.07-3.16,12.05-4.53c0.27-1.37,1.2-2.23,2.78-2.57c1.58-0.34,2.71-0.65,3.4-0.93
		c0,0.69,0.21,1.03,0.62,1.03c0.55-0.27,1.71-0.79,3.5-1.54c1.78-0.75,3.57-1.51,5.36-2.27c1.78-0.75,2.81-1.2,3.09-1.34l-1.44-0.82
		c1.78-0.82,3.64-1.58,5.56-2.27c1.92-0.69,3.78-1.3,5.56-1.85c-0.69-1.51-1.82-2.71-3.4-3.6c-1.58-0.89-2.92-2.02-4.02-3.4
		c2.33-0.14,4.74-0.41,7.21-0.82s4.81-1.1,7-2.06c3.3,1.37,6.52,2.85,9.68,4.43c3.16,1.58,6.45,2.92,9.89,4.02
		c-0.28,0.55-0.34,1.1-0.21,1.65c0.13,0.55,0.27,1.03,0.41,1.44c0.13,0.82,0.24,1.65,0.31,2.47c0.07,0.82-0.38,1.79-1.34,2.88
		c-8.93,1.92-17.58,4.71-25.96,8.34c-8.38,3.64-16.79,7.04-25.24,10.2c-8.45,3.16-17.41,5.08-26.88,5.77
		c1.1,2.34,2.02,4.77,2.78,7.31c0.75,2.54,0.79,5.12,0.1,7.73c4.26,0,8.48,0.04,12.67,0.1c4.19,0.07,8.41,0.1,12.67,0.1
		c9.06,0,18.09-0.34,27.09-1.03c8.99-0.69,17.95-1.99,26.88-3.91c5.22,1.37,10.16,2.88,14.83,4.53c4.67,1.65,8.72,4.19,12.15,7.62
		c-4.12,1.37-8.38,2.13-12.77,2.27c-4.4,0.14-8.86,0.21-13.39,0.21c-2.06,0-4.16,0-6.28,0c-2.13,0-4.22,0.07-6.28,0.21
		c0.55,1.37,0.89,2.75,1.03,4.12c0.13,1.37,0.21,2.75,0.21,4.12c0,5.36-0.65,10.81-1.96,16.38c-1.31,5.56-2.71,10.95-4.22,16.17
		c0.41,0,1.03,0.07,1.85,0.21c2.88,0.28,5.77,0.48,8.65,0.62c2.88,0.14,5.39,0,7.52-0.41c2.13-0.41,3.4-1.3,3.81-2.68
		c4.39,0.28,9.17,0.93,14.32,1.96s10.09,2.54,14.83,4.53C192.79,318.18,196.67,320.83,199.69,324.12z M124.5,282.1
		c0-1.65-0.1-3.26-0.31-4.84c-0.21-1.58-0.65-3.05-1.34-4.43c-1.24,0-2.44,0-3.6,0c-1.17,0-2.3,0-3.4,0
		c-6.87,0.14-13.73,0.34-20.6,0.62c-6.87,0.28-13.53,1.31-19.98,3.09c0.14,3.16,0.21,6.32,0.21,9.48c0,3.16,0,6.32,0,9.48
		c0,3.16,0,6.32,0,9.48c0,3.16,0.07,6.32,0.21,9.48c3.57-0.41,7.14-0.69,10.71-0.82c3.57-0.13,7.14-0.21,10.71-0.21
		c3.98,0,7.96-0.07,11.95-0.21c3.98-0.13,8.03-0.55,12.15-1.24c0-5.08,0.55-10.06,1.65-14.94
		C123.95,292.16,124.5,287.18,124.5,282.1z M175.38,380.15c-0.82,0.82-1.85,1.37-3.09,1.65c-1.24,0.27-2.54,0.41-3.91,0.41
		c-2.06,0-3.99-0.51-5.77-1.54c-1.79-1.03-3.64-1.68-5.56-1.96c-3.3-3.57-6.08-7.49-8.34-11.74c-2.27-4.26-4.46-8.55-6.59-12.88
		c-2.13-4.33-4.77-8.34-7.93-12.05c-1.79-2.06-3.81-4.05-6.08-5.97c-2.27-1.92-3.4-4.39-3.4-7.42c4.53,0.69,8.79,2.06,12.77,4.12
		c3.98,2.06,7.9,4.29,11.74,6.7c3.84,2.4,7.76,4.5,11.74,6.28c2.61,2.34,4.63,5.12,6.08,8.34c1.44,3.23,2.78,6.42,4.02,9.58
		c1.78,1.24,2.92,3.64,3.4,7.21C174.93,374.45,175.24,377.54,175.38,380.15z"/>
	<path class="st0" d="M71.35,473.48c0,2.2-0.76,3.78-2.27,4.74c-1.51,0.96-3.23,2.68-5.15,5.15c-0.96,1.24-1.68,2.58-2.16,4.02
		c-0.48,1.44-1.07,2.65-1.75,3.61c-0.96,1.24-2.03,2.1-3.19,2.58c-1.17,0.48-1.89,1.54-2.16,3.19c-0.14,1.1-0.07,2.06,0.21,2.88
		c0.27,0.82,0.69,1.72,1.24,2.68c0.14,0.41,0.31,0.86,0.52,1.34c0.21,0.48,0.44,1,0.72,1.54c0.13,6.32,0.17,12.09,0.1,17.3
		c-0.07,5.22-0.24,10.3-0.51,15.24c-0.14,6.73-0.28,13.6-0.41,20.6c-0.14,7,0.14,15.04,0.82,24.1c-4.12,0.82-7.31,0-9.58-2.47
		c-2.27-2.47-4.22-5.22-5.87-8.24c-0.55-0.82-1.07-1.65-1.54-2.47c-0.48-0.82-1-1.58-1.54-2.27c1.92-5.49,3.4-11.81,4.43-18.95
		c1.03-7.14,1.72-14.25,2.06-21.32c0.34-7.07,0.38-13.08,0.1-18.03c-1.51,1.24-3.02,2.82-4.53,4.74c-1.51,1.92-2.2,3.85-2.06,5.77
		c-4.12,2.47-7.52,5.67-10.2,9.58c-2.68,3.91-5.94,7.25-9.79,9.99c-0.96-0.14-1.92-0.14-2.88,0c-0.96,0.14-1.85,0.28-2.68,0.41
		c-1.79,0.28-3.6,0.41-5.46,0.41s-3.74-0.69-5.67-2.06c9.34-9.34,18.06-19.4,26.16-30.18c8.1-10.78,15.58-22.07,22.45-33.89
		c-0.82-1.92-1.96-3.57-3.4-4.94c-1.44-1.37-2.57-3.02-3.4-4.94c1.51-1.1,3.74-1.75,6.69-1.96c2.95-0.21,6.01,0.07,9.17,0.82
		c3.16,0.76,5.87,2.06,8.14,3.91C70.22,468.23,71.35,470.6,71.35,473.48z M72.59,429.81c-0.69,0.96-2.03,2.03-4.02,3.19
		c-1.99,1.17-4.16,2.44-6.49,3.81c-2.34,1.37-4.4,3.02-6.18,4.94c-2.88,3.02-6.01,6.49-9.37,10.4c-3.37,3.91-6.42,7.52-9.17,10.81
		c-1.1,0-2.13,0.04-3.09,0.1c-0.96,0.07-1.85,0.17-2.68,0.31c-2.34,0.28-4.29,0.31-5.87,0.1c-1.58-0.21-2.99-1.34-4.22-3.4
		c10.44-10.43,20.39-21.42,29.87-32.96c-0.82-1.92-2.03-3.4-3.61-4.43c-1.58-1.03-3.06-2.16-4.43-3.4c0.27-2.88,1.47-4.39,3.6-4.53
		c2.13-0.14,4.22-0.07,6.28,0.21c0.96,0.14,1.65,0.21,2.06,0.21c3.02-0.82,6.25-0.58,9.68,0.72c3.43,1.31,6.04,3.23,7.83,5.77
		C74.58,424.22,74.51,426.93,72.59,429.81z M206.9,494.49c-3.71,0.28-7.21,0.48-10.51,0.62c-3.3,0.14-6.8,0.34-10.51,0.62
		c-3.71,0.28-8.03,0.82-12.98,1.65c1.24,1.65,2.13,3.33,2.68,5.05c0.55,1.72,1.03,3.54,1.44,5.46c0.14,0.82-0.21,1.38-1.03,1.65
		c-0.41,0.14-0.72,0.31-0.93,0.51c-0.21,0.21-0.24,0.65-0.1,1.34c-0.28,0.69-0.38,1.13-0.31,1.34c0.07,0.21,0.17,0.38,0.31,0.52
		c0.41,0.41,0.62,0.96,0.62,1.65c-1.24,1.51-1.82,3.37-1.75,5.56c0.07,2.2,0.31,4.53,0.72,7c0.27,1.37,0.51,2.78,0.72,4.22
		c0.21,1.44,0.31,2.92,0.31,4.43c0,1.65-0.04,3.33-0.1,5.05c-0.07,1.72-0.17,3.4-0.31,5.05c-0.14,2.2-0.24,4.4-0.31,6.59
		c-0.07,2.2-0.04,4.33,0.1,6.39c0,0.14,0,0.41,0,0.82c0.27,3.02,0.41,6.49,0.41,10.4s-0.55,7.69-1.65,11.33
		c-1.1,3.64-3.16,6.49-6.18,8.55c-3.3-0.96-6.49-2.03-9.58-3.19c-3.09-1.17-6.28-2.23-9.58-3.19c0.41-0.69,0.62-1.38,0.62-2.06
		c-1.79-1.79-4.02-3.64-6.7-5.56c-2.68-1.92-5.36-3.74-8.03-5.46c-2.68-1.72-5.74-3.67-9.17-5.87c1.37,0,2.95,0.14,4.74,0.41
		c1.78,0.28,3.64,0.55,5.56,0.82c3.84,0.69,7.9,1.2,12.15,1.54c4.26,0.34,8.03-0.1,11.33-1.34c2.2-10.99,3.02-22.21,2.47-33.68
		c-0.55-11.46-1.99-21.8-4.33-31c-2.47-1.37-4.77-2.33-6.9-2.88c-2.13-0.55-4.26-1.13-6.39-1.75c-2.13-0.62-4.36-1.68-6.7-3.19
		c-1.24,3.02-2.2,5.84-2.88,8.45c-0.69,2.61-0.82,5.22-0.41,7.83c-2.47,1.92-5.7,3.02-9.68,3.3c-3.99,0.28-7.83,0.76-11.54,1.44
		c0,1.1,0.48,1.75,1.44,1.96c0.96,0.21,1.58,0.72,1.85,1.54c2.88-1.1,6.14-1.51,9.79-1.24c3.64,0.28,7.24,1.07,10.81,2.37
		c3.57,1.31,6.45,3.06,8.65,5.25c-2.61,1.37-5.77,2.27-9.48,2.68s-7.28,0.82-10.71,1.24c-3.43,0.41-6.25,1.24-8.45,2.47
		c0,0.41-0.07,1.1-0.21,2.06c0,1.51,0,2.99,0,4.43c0,1.44,0.27,2.78,0.82,4.02c3.43-1.51,7.38-2.09,11.84-1.75
		c4.46,0.34,8.82,1.27,13.08,2.78c4.25,1.51,7.69,3.3,10.3,5.36c-2.61,1.65-5.87,2.61-9.79,2.88c-3.91,0.28-7.8,0.41-11.64,0.41
		c-2.47,0-4.77,0.04-6.9,0.1c-2.13,0.07-3.95,0.31-5.46,0.72c-1.24,3.02-1.92,6.49-2.06,10.4c-0.14,3.91-0.34,7.66-0.62,11.23
		c-0.28,3.57-1.37,6.45-3.3,8.65c-3.02-0.28-5.29-1.48-6.8-3.61c-1.51-2.13-2.51-4.7-2.99-7.72c-0.48-3.02-0.65-6.04-0.51-9.06
		c0.13-3.02,0.41-5.56,0.82-7.62c-2.75-0.41-5.53-0.41-8.34,0c-2.82,0.41-5.6,0.82-8.34,1.24c-3.43,0.69-6.8,1.17-10.09,1.44
		c-3.3,0.28-6.32-0.17-9.06-1.34c-2.75-1.17-5.15-3.53-7.21-7.11c0.82,0,1.68-0.1,2.58-0.31c0.89-0.21,1.89-0.44,2.99-0.72
		c1.51-0.41,3.12-0.79,4.84-1.13c1.72-0.34,3.33-0.31,4.84,0.1c2.75-2.61,3.98-5.15,3.71-7.62c-0.28-2.47-1.51-4.63-3.71-6.49
		c-2.2-1.85-4.88-2.99-8.03-3.4c1.65-1.1,3.16-2.3,4.53-3.6c1.37-1.3,2.95-2.44,4.74-3.4c0.82,0,1.68,0.04,2.58,0.1
		c0.89,0.07,1.82,0.1,2.78,0.1c3.3,0.28,6.73,0.41,10.3,0.41c3.57,0,6.8-0.48,9.68-1.44c0-0.69-0.1-1.51-0.31-2.47
		c-0.21-0.96-0.51-1.78-0.93-2.47c-1.1,0.14-2.16,0.31-3.19,0.51c-1.03,0.21-2.03,0.38-2.99,0.52c-3.3,0.69-6.28,1.13-8.96,1.34
		s-5.08-0.27-7.21-1.44c-2.13-1.17-4.02-3.53-5.67-7.11c0-0.14,0.07-0.27,0.21-0.41c0.41-1.78,0.93-4.39,1.54-7.83
		c0.62-3.43,0.51-6.59-0.31-9.48c-0.28-0.96-0.72-1.82-1.34-2.57c-0.62-0.75-1.27-1.41-1.96-1.96c-0.96-0.82-1.75-1.65-2.37-2.47
		c-0.62-0.82-0.79-1.78-0.51-2.88c6.45-2.33,13.39-4.05,20.81-5.15c7.42-1.1,15.11-1.92,23.07-2.47c3.57-2.47,7.38-3.6,11.43-3.4
		c4.05,0.21,8.03,1.24,11.95,3.09c3.91,1.85,7.45,4.09,10.61,6.69c0,0.82-0.17,1.38-0.51,1.65c-0.34,0.28-0.72,0.55-1.13,0.82
		c-1.1,0.41-1.65,0.96-1.65,1.65c3.84,0.14,8.2,0.17,13.08,0.1c4.87-0.07,9.75-0.44,14.63-1.13c4.87-0.69,9.17-1.72,12.88-3.09
		c4.81,0.96,9.13,2.27,12.98,3.91c3.84,1.65,7.48,3.57,10.92,5.77V494.49z M146.95,464.42c-1.79,1.51-4.26,2.51-7.42,2.99
		c-3.16,0.48-6.46,0.86-9.89,1.13c-5.77,0.55-12.15,1.07-19.16,1.54c-7,0.48-13.46,1.13-19.36,1.96c-0.82,0.14-1.58,0.31-2.27,0.51
		c-0.69,0.21-1.37,0.38-2.06,0.52c-1.1,0.41-2.16,0.72-3.19,0.93c-1.03,0.21-2.03,0.24-2.99,0.1c-3.02-0.41-5.46-1.78-7.31-4.12
		c-1.85-2.33-3.68-4.19-5.46-5.56c2.06-1.1,4.19-1.72,6.39-1.85c2.2-0.14,4.39-0.21,6.59-0.21c1.78,0,3.6,0,5.46,0
		c1.85,0,3.74-0.27,5.67-0.82c0.69-2.75,1.13-5.18,1.34-7.31c0.21-2.13,0.38-5.32,0.51-9.58c-0.55,0-1,0-1.34,0
		c-0.34,0-0.65,0.07-0.93,0.21c-0.69,0.14-1.44,0.07-2.27-0.21c-2.06,2.06-4.4,2.85-7,2.37c-2.61-0.48-5.05-1.58-7.31-3.3
		c-2.27-1.72-4.16-3.26-5.67-4.63c1.78-2.2,4.05-3.57,6.8-4.12c2.75-0.55,5.63-0.93,8.65-1.13c3.02-0.21,5.83-0.79,8.45-1.75
		c-0.41-4.67-1.79-8.31-4.12-10.92c-2.34-2.61-4.53-5.36-6.59-8.24c0.14-0.69,0.41-1.24,0.82-1.65c0.41-0.41,0.62-1.03,0.62-1.85
		c5.63-0.13,10.88,1,15.76,3.4c4.87,2.4,8.27,6.01,10.2,10.81c0,0.69-0.17,1.2-0.52,1.54c-0.34,0.34-0.72,0.65-1.13,0.93
		c-0.41,0.41-0.79,0.82-1.13,1.24c-0.34,0.41-0.51,1.03-0.51,1.85c1.1,0.82,2.64,1.2,4.63,1.13c1.99-0.07,3.95-0.52,5.87-1.34
		c1.92-0.82,3.3-1.92,4.12-3.3c4.53-0.27,8,0.07,10.4,1.03c2.4,0.96,4.64,2.13,6.7,3.5c1.1,0.69,2.23,1.38,3.4,2.06
		c1.17,0.69,2.5,1.31,4.02,1.85c-0.41,0.41-0.59,0.86-0.51,1.34c0.07,0.48,0.17,1,0.31,1.55c0.13,0.55,0.24,1.1,0.31,1.65
		c0.07,0.55,0.03,1.17-0.1,1.85c-0.55,0.14-1.07,0.34-1.54,0.62c-0.48,0.28-0.93,0.48-1.34,0.62c-0.55,0.41-1.17,0.79-1.85,1.13
		c-0.69,0.34-1.58,0.45-2.68,0.31c-0.55,1.79-0.82,3.91-0.82,6.39s-0.55,5.08-1.65,7.83c1.37,1.79,3.26,2.92,5.67,3.4
		C143.89,461.3,145.72,462.5,146.95,464.42z M119.14,483.37c-3.98-0.55-7.93-0.44-11.84,0.31c-3.91,0.76-7.72,1.62-11.43,2.58
		c-1.65,0.41-3.23,0.79-4.74,1.13c-1.51,0.34-3.02,0.65-4.53,0.93c0.27,2.2,0.65,5.15,1.13,8.86c0.48,3.71,0.72,7.08,0.72,10.09
		c1.65-0.13,3.22-0.24,4.74-0.31c1.51-0.07,3.02-0.17,4.53-0.31c3.71-0.14,7.21-0.41,10.51-0.82s6.73-1.58,10.3-3.5
		c0-1.51,0.07-2.88,0.21-4.12c0.14-1.24,0.27-2.4,0.41-3.5c0.27-1.78,0.48-3.53,0.62-5.25
		C119.89,487.73,119.69,485.71,119.14,483.37z M103.9,541.67c0.14-1.1,0.14-2.47,0-4.12c-0.14-1.65-0.62-3.57-1.44-5.77
		c-4.4-0.96-7.62-0.41-9.68,1.65c-1.37,1.38-2.2,3.13-2.47,5.25c-0.28,2.13-0.89,3.81-1.85,5.05c0.55,0,1.1,0,1.65,0
		c0.55,0,1.1,0,1.65,0c2.33-0.14,4.6-0.27,6.8-0.41C100.74,543.18,102.52,542.63,103.9,541.67z M120.38,455.97
		c-0.14-1.24-0.17-2.4-0.1-3.5c0.07-1.1,0.17-2.2,0.31-3.3c0.13-1.65,0.21-3.19,0.21-4.63s-0.34-2.78-1.03-4.02
		c-2.2,0-4.33,0.14-6.39,0.41c-2.06,0.28-4.12,0.55-6.18,0.82c-0.14,0.96-0.31,1.96-0.51,2.99s-0.45,2.03-0.72,2.99
		c-0.55,2.34-0.96,4.6-1.24,6.8c-0.28,2.2,0.07,4.05,1.03,5.56c1.37-0.82,3.02-1.3,4.94-1.44c1.92-0.14,3.78-0.34,5.56-0.62
		C118.04,457.76,119.42,457.07,120.38,455.97z M199.48,453.71c-4.81,1.51-10.68,2.44-17.61,2.78c-6.94,0.34-13.43,0.86-19.47,1.54
		c-2.34,1.51-4.94,2.06-7.83,1.65c-2.88-0.41-5.63-1.44-8.24-3.09c-2.61-1.65-4.6-3.5-5.97-5.56c2.47-2.06,5.42-3.3,8.86-3.71
		c3.43-0.41,7-0.62,10.71-0.62c3.02-0.14,6.04-0.31,9.06-0.51c3.02-0.21,5.9-0.93,8.65-2.16c-0.55-0.27-0.62-0.75-0.21-1.44
		c0.14-0.41,0.21-0.69,0.21-0.82c2.75,0.82,5.7,1.68,8.86,2.58c3.16,0.89,5.97,2.06,8.45,3.5
		C197.42,449.28,198.93,451.23,199.48,453.71z"/>
</g>
</svg>
